<?xml version="1.0" standalone="no"?>
<!DOCTYPE svg PUBLIC "-//W3C//DTD SVG 20010904//EN"
 "http://www.w3.org/TR/2001/REC-SVG-20010904/DTD/svg10.dtd">
<svg version="1.0" xmlns="http://www.w3.org/2000/svg"
 width="512.000000pt" height="512.000000pt" viewBox="0 0 512.000000 512.000000"
 preserveAspectRatio="xMidYMid meet">

<g transform="translate(0.000000,512.000000) scale(0.100000,-0.100000)"
fill="#000000" stroke="none">
<path d="M2243 4704 c-66 -24 -127 -85 -169 -170 -45 -91 -79 -117 -177 -133
-152 -26 -237 -81 -297 -193 -31 -56 -35 -73 -38 -160 -4 -93 -3 -98 21 -122
l26 -26 741 0 742 0 30 30 c30 30 30 32 26 113 -5 100 -39 181 -101 245 -56
58 -122 90 -230 112 -49 10 -101 27 -116 37 -14 11 -45 55 -68 98 -54 98 -72
118 -147 155 -50 25 -70 30 -130 29 -39 0 -90 -7 -113 -15z m170 -204 c51 -40
43 -126 -14 -155 -43 -23 -77 -18 -110 14 -83 83 32 213 124 141z"/>
<path d="M2030 3571 c0 -171 5 -196 35 -171 11 9 15 34 15 85 0 56 4 75 18 87
26 23 51 29 73 18 16 -9 19 -22 19 -94 0 -62 4 -87 15 -96 12 -10 18 -10 31 1
13 11 15 29 12 101 -4 75 -8 91 -28 113 -18 19 -33 25 -66 25 -24 0 -46 -4
-49 -10 -14 -23 -24 -6 -27 48 -3 50 -6 57 -25 60 l-23 3 0 -170z"/>
<path d="M2817 3733 c-4 -3 -7 -77 -7 -163 0 -126 3 -160 15 -170 21 -17 35
-4 35 35 0 30 21 65 38 65 4 0 25 -25 46 -55 22 -30 46 -55 53 -55 24 0 26 31
4 61 -11 16 -31 43 -43 59 l-22 31 37 36 c21 19 36 40 34 47 -8 24 -36 15 -84
-29 -28 -25 -54 -45 -57 -45 -3 0 -6 43 -6 95 0 85 -2 95 -18 95 -10 0 -22 -3
-25 -7z"/>
<path d="M1782 3713 c-53 -26 -76 -68 -80 -143 -4 -83 17 -126 78 -157 52 -27
104 -29 160 -7 28 11 40 22 40 36 0 18 -4 20 -32 12 -18 -4 -57 -8 -86 -9 -48
0 -57 3 -83 33 -24 27 -29 41 -29 83 0 45 4 55 35 86 34 34 38 35 88 29 28 -3
63 -7 77 -8 39 -5 36 25 -5 45 -45 21 -120 22 -163 0z"/>
<path d="M2337 3620 c-33 -26 -51 -80 -42 -128 7 -42 19 -60 55 -85 46 -32
150 -15 158 26 3 16 -2 18 -57 11 -51 -6 -65 -4 -81 11 -38 35 -26 44 63 47
l82 3 3 32 c2 23 -5 40 -28 67 -28 32 -38 36 -80 36 -32 0 -55 -6 -73 -20z
m113 -40 c32 -32 24 -40 -40 -40 -64 0 -73 9 -43 42 21 24 58 23 83 -2z"/>
<path d="M2595 3607 c-105 -105 14 -270 145 -202 32 16 39 39 17 48 -8 3 -20
1 -28 -4 -23 -15 -75 -10 -99 9 -16 13 -22 29 -22 56 0 64 42 90 119 72 41 -9
54 11 23 36 -15 12 -39 18 -72 18 -43 0 -54 -4 -83 -33z"/>
<path d="M1444 3232 c-10 -2 -29 -13 -41 -25 -22 -20 -23 -26 -23 -214 0 -261
-18 -243 243 -243 181 0 195 1 215 20 12 12 22 28 23 38 0 9 0 98 -1 197 -2
240 14 223 -220 227 -97 2 -186 1 -196 0z m320 -154 c9 -15 -2 -30 -69 -99
-111 -112 -107 -111 -167 -52 -32 31 -48 55 -46 68 5 32 37 30 72 -4 l32 -31
69 70 c71 71 89 79 109 48z"/>
<path d="M3275 2434 c-220 -34 -401 -182 -477 -390 -15 -41 -23 -91 -26 -161
-6 -149 29 -257 138 -418 125 -184 365 -411 615 -580 96 -65 100 -67 151 -63
48 4 63 13 206 120 268 203 429 362 549 542 85 129 121 227 127 347 8 174 -43
306 -167 430 -119 118 -239 169 -406 169 -104 0 -180 -17 -263 -59 l-59 -30
-32 20 c-84 51 -261 87 -356 73z m885 -221 c119 -58 209 -187 218 -313 3 -53
1 -68 -12 -79 -13 -11 -22 -11 -40 -3 -19 8 -24 21 -30 69 -13 117 -93 223
-194 258 -98 34 -120 56 -91 91 17 21 77 12 149 -23z m-256 11 c32 -32 18 -52
-65 -90 -61 -29 -92 -20 -87 24 2 21 14 33 57 55 63 31 74 33 95 11z m-240
-266 c8 -13 42 -113 76 -223 35 -110 66 -204 70 -208 3 -4 14 21 24 55 10 34
22 68 28 75 15 18 388 19 406 1 17 -17 15 -44 -4 -62 -13 -13 -43 -16 -174
-16 l-159 0 -37 -117 c-41 -125 -56 -153 -85 -153 -29 0 -43 31 -115 263 -37
119 -70 217 -74 217 -3 0 -26 -41 -50 -92 -25 -50 -51 -97 -58 -105 -10 -10
-56 -13 -192 -13 -188 0 -210 5 -210 49 0 37 19 41 182 41 l159 0 68 140 c38
77 74 147 81 155 18 22 47 18 64 -7z"/>
</g>
</svg>
